<?xml version="1.0" encoding="utf-8"?>
<!-- Generator: Adobe Illustrator 27.5.0, SVG Export Plug-In . SVG Version: 6.00 Build 0)  -->
<svg version="1.1" xmlns="http://www.w3.org/2000/svg" xmlns:xlink="http://www.w3.org/1999/xlink" x="0px" y="0px"
	 viewBox="0 0 850 500" style="enable-background:new 0 0 850 500;" xml:space="preserve">
<g id="BACKGROUND">
	<g>
		<g>
			<rect style="fill:#FFFFFF;" width="850" height="500"/>
			<rect y="388.216" style="fill:#EFF6FF;" width="850" height="111.784"/>
		</g>
		<ellipse style="fill:#DCE8F7;" cx="425" cy="446.49" rx="406.773" ry="37.444"/>
		<g>
			<rect x="251.855" y="60.164" style="fill:#D0DFEF;" width="434.667" height="217.63"/>
			<g>
				<g>
					<rect x="545.743" y="126.026" style="fill:#93B2CE;" width="57.354" height="2.849"/>
					<rect x="545.743" y="133.197" style="fill:#93B2CE;" width="114.709" height="2.849"/>
					<rect x="545.743" y="140.369" style="fill:#93B2CE;" width="114.709" height="2.849"/>
					<rect x="545.743" y="147.54" style="fill:#93B2CE;" width="114.709" height="2.849"/>
					<rect x="545.743" y="154.711" style="fill:#93B2CE;" width="114.709" height="2.849"/>
					<rect x="545.743" y="161.882" style="fill:#93B2CE;" width="114.709" height="2.849"/>
				</g>
				<g>
					<polyline style="fill:none;stroke:#93B2CE;stroke-miterlimit:10;" points="466.673,182.701 466.673,259.638 631.869,259.638 
											"/>
					<rect x="474.039" y="187.726" style="fill:#5295FE;" width="6.815" height="67.347"/>
					<rect x="490.654" y="223.128" style="fill:#FF5050;" width="6.815" height="31.945"/>
					<rect x="507.268" y="235.108" style="fill:#5295FE;" width="6.815" height="19.965"/>
					<rect x="523.882" y="215.143" style="fill:#FF5050;" width="6.815" height="39.931"/>
					<rect x="540.497" y="187.726" style="fill:#5295FE;" width="6.815" height="67.347"/>
					<rect x="557.111" y="235.108" style="fill:#FF5050;" width="6.815" height="19.965"/>
					<rect x="573.725" y="215.143" style="fill:#5295FE;" width="6.815" height="39.931"/>
					<rect x="590.34" y="222.254" style="fill:#FF5050;" width="6.815" height="32.82"/>
					<rect x="606.954" y="204.483" style="fill:#5295FE;" width="6.815" height="50.591"/>
					<rect x="623.569" y="248.259" style="fill:#FF5050;" width="6.815" height="6.815"/>
				</g>
				<rect x="466.673" y="83.501" style="fill:#93B2CE;" width="194.049" height="24.485"/>
				<path style="fill:#FFFFFF;" d="M525.889,141.078h-51.658c-4.174,0-7.557-3.384-7.557-7.557v0c0-4.174,3.384-7.557,7.557-7.557
					h51.658c4.174,0,7.557,3.384,7.557,7.557v0C533.446,137.695,530.063,141.078,525.889,141.078z"/>
				<path style="fill:#5295FE;" d="M496.281,141.078h-22.05c-4.174,0-7.557-3.384-7.557-7.557v0c0-4.174,3.384-7.557,7.557-7.557
					h22.05c4.174,0,7.557,3.384,7.557,7.557v0C503.839,137.695,500.455,141.078,496.281,141.078z"/>
				<path style="fill:#FFFFFF;" d="M525.889,167.741h-51.658c-4.174,0-7.557-3.384-7.557-7.557l0,0c0-4.174,3.384-7.557,7.557-7.557
					h51.658c4.174,0,7.557,3.384,7.557,7.557l0,0C533.446,164.357,530.063,167.741,525.889,167.741z"/>
				<path style="fill:#FF5050;" d="M513.891,167.741h-39.66c-4.174,0-7.557-3.384-7.557-7.557l0,0c0-4.174,3.384-7.557,7.557-7.557
					h39.66c4.174,0,7.557,3.384,7.557,7.557l0,0C521.448,164.357,518.065,167.741,513.891,167.741z"/>
				<path style="fill:#FF5050;" d="M355.224,172.811h77.57c0,42.554-35.017,77.57-77.57,77.57s-77.57-35.017-77.57-77.57
					s35.017-77.57,77.57-77.57V172.811z"/>
				<path style="fill:#5295FE;" d="M364.819,163.216l-0.359-84.894c0.12-0.001,0.239-0.001,0.359-0.001
					c46.431,0,84.69,38.091,84.894,84.521L364.819,163.216z"/>
			</g>
		</g>
		<g>
			
				<ellipse transform="matrix(0.1387 -0.9903 0.9903 0.1387 555.5118 837.6686)" style="fill:#D0DFFF;" cx="759.338" cy="99.467" rx="42.512" ry="42.512"/>
			
				<ellipse transform="matrix(0.2326 -0.9726 0.9726 0.2326 485.9482 814.8304)" style="fill:#F5FAFF;" cx="759.338" cy="99.467" rx="36.312" ry="36.312"/>
			
				<ellipse transform="matrix(0.8507 -0.5257 0.5257 0.8507 61.1131 414.0612)" style="fill:#EFF6FF;" cx="759.338" cy="99.467" rx="32.327" ry="32.327"/>
			<path style="fill:#FFFFFF;" d="M759.338,67.14c-17.854,0-32.327,14.473-32.327,32.327c0,0.598,0.019,1.192,0.051,1.782
				c16.983-2.175,40.605,2.418,63.621-9.706C787.148,77.521,774.457,67.14,759.338,67.14z"/>
			<path style="fill:#424260;" d="M762.437,99.467c0,1.712-1.388,3.1-3.1,3.1c-1.712,0-3.1-1.388-3.1-3.1c0-1.712,1.388-3.1,3.1-3.1
				C761.05,96.367,762.437,97.755,762.437,99.467z"/>
			<g>
				<path style="fill:#424260;" d="M768.711,109.86c-0.299,0-0.598-0.114-0.826-0.342l-10.011-10.011V77.325
					c0-0.645,0.523-1.168,1.168-1.168c0.645,0,1.168,0.523,1.168,1.168V98.54l9.326,9.327c0.456,0.456,0.456,1.195,0,1.651
					C769.308,109.746,769.01,109.86,768.711,109.86z"/>
			</g>
		</g>
		<g>
			<rect x="62.118" y="60.441" style="fill:#DCE8F7;" width="155.854" height="217.354"/>
			
				<rect x="94.559" y="47.999" transform="matrix(-1.836970e-16 1 -1 -1.836970e-16 255.9703 -24.1182)" style="fill:#EFF6FF;" width="90.97" height="135.854"/>
			
				<rect x="94.559" y="152.365" transform="matrix(-1.836970e-16 1 -1 -1.836970e-16 360.3359 80.2474)" style="fill:#EFF6FF;" width="90.97" height="135.854"/>
			<g>
				<polygon style="fill:#FFFFFF;" points="207.971,265.777 207.971,243.485 139.293,174.807 72.118,174.807 72.118,218.725 
					119.169,265.777 				"/>
				<polygon style="fill:#FFFFFF;" points="207.971,207.846 207.971,174.807 174.931,174.807 				"/>
			</g>
			<g>
				<polygon style="fill:#FFFFFF;" points="124.542,70.441 72.118,70.441 72.118,71.993 161.536,161.411 207.971,161.411 
					207.971,153.87 				"/>
				<polygon style="fill:#FFFFFF;" points="72.118,107.631 72.118,161.411 125.897,161.411 				"/>
			</g>
		</g>
	</g>
</g>
<g id="OBJECTS">
	<g>
		<g>
			<g>
				<g>
					<path style="fill:#56567C;" d="M592.45,441.915h6.556c2.791,0,5.074-2.283,5.074-5.074v-14.603
						c0-2.791-2.283-5.074-5.074-5.074h-6.556c-2.791,0-5.074,2.283-5.074,5.074v14.603
						C587.376,439.632,589.659,441.915,592.45,441.915z"/>
					<g>
						<g>
							<path style="fill:#4E4E7F;" d="M604.38,428.657h-0.569c-0.427,0-0.82,0.264-0.953,0.67c-0.962,2.94-3.723,5.065-6.984,5.065
								c-3.261,0-6.022-2.125-6.984-5.065c-0.133-0.406-0.526-0.67-0.954-0.67h-5.402c-0.17,0-0.338,0.043-0.487,0.124
								l-14.009,7.641c-2.042,1.113-3.702,2.814-4.767,4.881l-1.974,3.832c-1.416,2.749,0.58,6.022,3.672,6.022h36.539
								c2.605,0,4.65-2.232,4.422-4.827L604.38,428.657z"/>
							<path style="fill:#3E3D5E;" d="M594.739,434.301c0.37,0.057,0.748,0.092,1.134,0.092c2.616,0,4.892-1.379,6.194-3.437
								c0.801-0.275,1.616-0.528,2.447-0.758l1.415,16.134c0.228,2.595-1.818,4.827-4.422,4.827h-20.569
								C582.719,444.424,587.709,438.429,594.739,434.301z"/>
						</g>
						<path style="fill:#3E3D5E;" d="M604.146,452.481h-42.06c-1.112,0-2.022-0.91-2.022-2.022l0,0c0-1.112,0.91-2.022,2.022-2.022
							h42.06c1.112,0,2.022,0.91,2.022,2.022l0,0C606.168,451.571,605.258,452.481,604.146,452.481z"/>
					</g>
				</g>
				
					<rect x="565.713" y="307.353" transform="matrix(0.1042 -0.9946 0.9946 0.1042 217.7451 880.2306)" style="fill:#3E3D5E;" width="63.577" height="23.778"/>
				<path style="fill:#3E3D5E;" d="M583.531,426.783l-0.974-80.647l0,0c13.131-0.159,23.905-2.82,24.063,10.311l0.687,70.048
					L583.531,426.783z"/>
			</g>
			<path style="fill:#3E3D5E;" d="M624.475,303.165h-17.673c-10.692,0-19.44-8.748-19.44-19.44l0,0
				c0-7.158,5.856-13.013,13.013-13.013h30.526c7.157,0,13.013,5.856,13.013,13.013l0,0
				C643.915,294.417,635.167,303.165,624.475,303.165z"/>
			<g>
				<g>
					<path style="fill:#56567C;" d="M630.158,441.915h6.556c2.791,0,5.074-2.283,5.074-5.074v-14.603
						c0-2.791-2.283-5.074-5.074-5.074h-6.556c-2.791,0-5.074,2.283-5.074,5.074v14.603
						C625.084,439.632,627.367,441.915,630.158,441.915z"/>
					<g>
						<g>
							<path style="fill:#4E4E7F;" d="M642.088,428.657h-0.569c-0.427,0-0.82,0.264-0.953,0.67c-0.962,2.94-3.723,5.065-6.984,5.065
								c-3.262,0-6.022-2.125-6.984-5.065c-0.133-0.406-0.526-0.67-0.954-0.67h-5.402c-0.17,0-0.338,0.043-0.487,0.124
								l-14.008,7.641c-2.042,1.113-3.702,2.814-4.767,4.881l-1.974,3.832c-1.416,2.749,0.58,6.022,3.672,6.022h36.539
								c2.605,0,4.65-2.232,4.422-4.827L642.088,428.657z"/>
						</g>
						<path style="fill:#3E3D5E;" d="M641.854,452.481h-42.06c-1.112,0-2.022-0.91-2.022-2.022l0,0c0-1.112,0.91-2.022,2.022-2.022
							h42.06c1.112,0,2.022,0.91,2.022,2.022l0,0C643.876,451.571,642.966,452.481,641.854,452.481z"/>
					</g>
				</g>
				
					<rect x="595.042" y="310.1" transform="matrix(-0.0387 -0.9993 0.9993 -0.0387 332.1844 963.5535)" style="fill:#3E3D5E;" width="69.077" height="23.778"/>
				<path style="fill:#3E3D5E;" d="M619.858,426.783l-0.973-80.647l0,0c13.131-0.159,23.905-2.82,24.063,10.311l0.687,70.048
					L619.858,426.783z"/>
			</g>
			<path style="fill:#262638;" d="M587.365,283.682c18.283,9.607,40.864,12.071,53.264,10.819c2.072-3.09,3.287-6.797,3.287-10.776
				c0-7.157-5.856-13.013-13.013-13.013h-30.526C593.233,270.711,587.388,276.544,587.365,283.682z"/>
			<g>
				<g>
					<g>
						<path style="fill:#FFB692;" d="M526.92,191.364l-1.732,1.732c-3.353,3.351-8.787,3.35-12.138-0.003l-0.487-0.487
							c-3.351-3.353-3.35-8.787,0.003-12.138l1.732-1.731c3.353-3.351,8.787-3.35,12.138,0.003l0.487,0.487
							C530.275,182.579,530.273,188.013,526.92,191.364z"/>
						<path style="fill:#FFB692;" d="M521.404,178.768l-0.147,0.104c-1.005,0.71-2.407,0.469-3.117-0.536l-7.432-10.519
							c-0.71-1.005-0.469-2.407,0.536-3.117l0.147-0.104c1.004-0.71,2.407-0.469,3.117,0.536l7.432,10.519
							C522.649,176.655,522.408,178.058,521.404,178.768z"/>
						<path style="fill:#F9AD8C;" d="M520.362,190.496L520.362,190.496c-0.857,0.95-2.335,1.026-3.285,0.169l-6.761-6.66
							c-0.95-0.857-1.026-2.335-0.169-3.285l0,0c0.857-0.95,2.335-1.026,3.285-0.169l6.761,6.661
							C521.143,188.067,521.219,189.546,520.362,190.496z"/>
						<path style="fill:#F9AD8C;" d="M523.624,187.393L523.624,187.393c-0.857,0.95-2.335,1.026-3.285,0.169l-6.761-6.661
							c-0.95-0.857-1.026-2.335-0.169-3.285l0,0c0.857-0.95,2.335-1.026,3.285-0.169l6.761,6.66
							C524.405,184.965,524.481,186.443,523.624,187.393z"/>
						<path style="fill:#F9AD8C;" d="M518.292,193.597L518.292,193.597c-0.795,1.003-2.265,1.173-3.268,0.378l-7.172-6.216
							c-1.003-0.795-1.173-2.265-0.378-3.268l0,0c0.795-1.003,2.265-1.173,3.268-0.378l7.172,6.216
							C518.916,191.124,519.086,192.594,518.292,193.597z"/>
						<path style="fill:#F9AD8C;" d="M520.011,182.626L520.011,182.626c-0.872,2.387-0.74,5.025,0.366,7.313l0,0
							c1.361,1.885,4.086,2.104,5.73,0.461l4.344-4.342c1.399-1.398,1.482-3.638,0.19-5.136l-2.924-3.391L520.011,182.626z"/>
						<path style="fill:#F29D7E;" d="M526.042,178.638l-6.031,3.988c-0.56,1.531-0.7,3.166-0.441,4.745
							C524.186,186.594,525.607,181.582,526.042,178.638z"/>
						<path style="fill:#F2A17E;" d="M515.565,182.684l6.907-6.904c0.966-0.965,2.532-0.965,3.497,0.001l1.748,1.749l-5.54,5.537
							c-1.817,1.816-4.815,1.754-6.494-0.189C515.579,182.756,515.531,182.684,515.565,182.684z"/>
					</g>
					
						<rect x="524.74" y="187.931" transform="matrix(0.726 -0.6877 0.6877 0.726 9.2785 420.9149)" style="fill:#FFFFFF;" width="16.15" height="21.767"/>
					<path style="fill:#3E3D5E;" d="M547.126,219.106l28.089-29.18c3.65-3.689,9.599-3.72,13.288-0.07v0
						c3.689,3.65,3.72,9.599,0.07,13.288l-25.47,26.46c-1.441,1.496-3.827,1.525-5.303,0.064L547.126,219.106z"/>
					<path style="fill:#262638;" d="M584.866,187.629c-0.374-0.124-0.752-0.231-1.136-0.307c-2.489,3.727-9.16,15.186-6.83,27.947
						l10.507-10.915L584.866,187.629z"/>
					<path style="fill:#3E3D5E;" d="M535.257,187.495l28.352,28.73c3.588,3.749,3.458,9.697-0.291,13.285l0,0
						c-3.749,3.588-9.697,3.458-13.285-0.291l-28.352-28.73L535.257,187.495z"/>
				</g>
				<path style="fill:#3E3D5E;" d="M678.382,229.646l-17.348-36.6c-2.287-4.658-7.917-6.581-12.576-4.294v0
					c-4.658,2.287-6.581,7.917-4.294,12.576l15.73,33.187c0.89,1.877,3.143,2.664,5.007,1.748L678.382,229.646z"/>
				<path style="fill:#262638;" d="M652.615,187.799c0.394,0.001,0.786,0.02,1.174,0.07c1.175,4.325,3.854,17.311-2.415,28.668
					l-6.489-13.69L652.615,187.799z"/>
				<g>
					<g>
						<path style="fill:#FFFFFF;" d="M642.303,277.387h-53.568v-73.236c0-14.221,11.529-25.75,25.75-25.75h2.067
							c14.221,0,25.75,11.529,25.75,25.75V277.387z"/>
					</g>
					<path style="fill:#E33E44;" d="M609.456,226.66c1.681,4.694,6.573,15.005,6.573,15.005s3.382-6.17,6.55-14.731l-6.748-31.393
						L609.456,226.66z"/>
					<g>
						<path style="fill:#3E3D5E;" d="M654.079,187.887L628.285,176.9c1.708,5.335,9.073,22.974-12.261,55.908l-0.007-0.044
							l-0.007,0.044c-20.587-30.244-13.969-50.573-12.261-55.908l-25.794,10.986c0,0-0.255,20.643,9.329,47.923l-0.113,48.838
							h21.197h2.978l4.117-4.569l4.938,4.569h3.265h21.196l-0.113-48.838C654.334,208.53,654.079,187.887,654.079,187.887z"/>
					</g>
					<path style="fill:#56567C;" d="M615.518,232.061c-16.983-25.368-14.82-43.651-12.747-51.807l-0.893-0.534
						c0,0-6.499,4.797-13.142,17.896l5.927,1.93l-3.372,6.326c0,0,14.033,21.333,24.229,26.208L615.518,232.061z"/>
					<path style="fill:#56567C;" d="M616.419,232.061c16.983-25.368,14.82-43.651,12.747-51.807l0.893-0.534
						c0,0,6.499,4.797,13.142,17.896l-5.927,1.93l3.372,6.326c0,0-14.033,21.333-24.229,26.208L616.419,232.061z"/>
					<path style="fill:#E33E44;" d="M623.516,189.864c-4.141-4.141-10.855-4.141-14.996,0l0,0l7.498,7.498L623.516,189.864
						L623.516,189.864z"/>
					<path style="fill:#FFB692;" d="M628.084,180.537c0-27.736-5.416-13.322-12.096-13.322c-6.681,0-12.096-12.626-12.096,13.322
						c0,9.72,5.416,8.881,12.096,8.881C622.669,189.418,628.084,190.258,628.084,180.537z"/>
					<path style="fill:#D88D87;" d="M604.144,172.435c1.139-14.848,6.009-5.219,11.844-5.219c6.469,0,11.752-13.513,12.08,10.808
						C617.732,181.402,609.713,177.48,604.144,172.435z"/>
					<path style="fill:#E8E8F9;" d="M632.048,183.259c-1.661-5.459-4.035-7.121-4.035-7.121s-3.158,7.104-11.996,9.407
						c-8.838-2.303-11.995-9.407-11.995-9.407s-2.374,1.661-4.035,7.121c-1.661,5.459,2.69,12.264,2.69,12.264l13.341-6.09
						l13.341,6.09C629.358,195.522,633.71,188.718,632.048,183.259z"/>
				</g>
				<g>
					<path style="fill:#FFB692;" d="M620.698,116.039h-10.764c-8.399,0-15.272,6.872-15.272,15.271v22.232
						c0,11.729,9.596,21.325,21.325,21.325h0c11.729,0,21.325-9.597,21.325-21.325v-20.888
						C637.313,123.516,629.836,116.039,620.698,116.039z"/>
					<path style="fill:#D88D87;" d="M635.453,125.047c-2.772-5.338-8.354-9.008-14.754-9.008h-10.764
						c-8.399,0-15.272,6.872-15.272,15.271v0.187C608.851,138.249,626.052,130.549,635.453,125.047z"/>
					<g>
						<path style="fill:#262638;" d="M593.05,138.476c-13.134-20.255,2.215-40.985,15.35-32.756
							c13.134,8.229,30.224,4.431,31.648,16.141c1.424,11.71-3.165,21.996-3.165,21.996h-1.503c0,0-9.336-6.013-3.402-18.831
							c0,0-16.787,12.313-35.855,3.926l2.677-2.409l-3.748,0.982c0,0,3.488,11.607-0.389,14.456L593.05,138.476z"/>
						<path style="fill:#3C3C60;" d="M635.014,114.746c-9.94,3.395-30.488,7.935-40.375-7.9c-1.919,1.615-3.548,3.818-4.707,6.441
							c20.957,13.66,40.813,7.102,48.115,3.813C637.232,116.15,636.208,115.384,635.014,114.746z"/>
					</g>
					<path style="fill:#262638;" d="M623.869,141.425l-3.773-0.206c-1.167-0.064-2.07-1.071-2.006-2.239l0,0
						c0.064-1.167,1.071-2.07,2.239-2.006l3.773,0.206c1.167,0.064,2.07,1.071,2.006,2.239l0,0
						C626.044,140.586,625.037,141.489,623.869,141.425z"/>
					<path style="fill:#262638;" d="M605.714,141.156l-3.755,0.424c-1.162,0.131-2.219-0.712-2.351-1.874l0,0
						c-0.131-1.162,0.712-2.219,1.874-2.351l3.755-0.424c1.162-0.131,2.219,0.712,2.351,1.874l0,0
						C607.719,139.967,606.876,141.025,605.714,141.156z"/>
					<g>
						<path style="fill:#D88D87;" d="M608.396,151.615c0,0,5.565,1.019,5.59,2.062c0.025,1.044-2.683,1.54-3.428,1.093
							C609.811,154.323,608.396,151.615,608.396,151.615z"/>
						<g>
							<path style="fill:#34344F;" d="M606.568,145.035c0,1.295-1.05,2.345-2.345,2.345s-2.345-1.05-2.345-2.345
								c0-1.295,1.05-2.345,2.345-2.345S606.568,143.74,606.568,145.035z"/>
							<path style="fill:#34344F;" d="M623.432,145.035c0,1.295-1.05,2.345-2.345,2.345c-1.295,0-2.345-1.05-2.345-2.345
								c0-1.295,1.05-2.345,2.345-2.345C622.382,142.69,623.432,143.74,623.432,145.035z"/>
							<path style="fill:#D88D87;" d="M612.886,139.531c-0.627,2.691-1.431,5.298-2.294,7.887c-0.438,1.292-0.876,2.583-1.368,3.86
								l-0.093,0.239c-0.039,0.105,0.038-0.072-0.013-0.163c-0.031-0.068-0.002-0.014-0.012-0.023
								c0.025,0.06,0.135,0.191,0.237,0.299l0.701,0.697c0.484,0.477,0.983,0.954,1.445,1.499c-0.685-0.208-1.315-0.51-1.929-0.857
								c-0.3-0.185-0.607-0.361-0.894-0.601c-0.147-0.127-0.289-0.233-0.457-0.456c-0.048-0.085-0.081-0.098-0.132-0.248
								c-0.059-0.175-0.016-0.439-0.007-0.413l0.082-0.244c0.441-1.303,0.935-2.593,1.431-3.881
								C610.586,144.554,611.647,142,612.886,139.531z"/>
						</g>
					</g>
					<g>
						<path style="fill:#34344F;" d="M608.99,158.02c2.559-0.321,6.138-0.942,9.533-2.128c2.233-0.78,4.068,2.084,2.827,4.458
							c-1.321,2.526-3.581,4.862-7.435,5.081c-3.159,0.179-5.144-0.713-6.392-1.92C605.757,161.803,606.709,158.306,608.99,158.02z"
							/>
						<path style="fill:#FF9292;" d="M613.915,165.431c3.855-0.219,6.114-2.555,7.435-5.081c0.186-0.356,0.296-0.723,0.352-1.087
							c-1.346-0.658-3.159-0.963-5.614-0.507c-3.793,0.705-5.719,3.306-6.689,5.977c-0.002,0.005-0.003,0.01-0.005,0.016
							C610.541,165.254,612.012,165.539,613.915,165.431z"/>
						<path style="fill:#FFABAB;" d="M612.174,162.235c0.358,0.66,1.815,0.6,3.254-0.134c1.439-0.735,2.315-1.866,1.957-2.527
							c-0.358-0.66-1.815-0.6-3.254,0.135C612.693,160.444,611.816,161.575,612.174,162.235z"/>
						<path style="fill:#FFFFFF;" d="M608.99,158.02c2.559-0.321,6.138-0.942,9.533-2.128c1.371-0.479,2.59,0.418,3.04,1.731
							c-2.024,1.697-5.076,3.025-8.608,3.552c-2.265,0.338-4.436,0.302-6.345-0.039C606.644,159.657,607.552,158.201,608.99,158.02z
							"/>
					</g>
					<g>
						<path style="fill:#FFB692;" d="M632.313,144.281c-1.299,4.071-0.113,8.109,2.649,9.019c2.762,0.91,6.053-1.653,7.352-5.724
							c1.299-4.071,0.113-8.109-2.649-9.019C636.904,137.647,633.612,140.21,632.313,144.281z"/>
						<path style="fill:#D88D87;" d="M635.253,145.103c-0.422-0.139-0.862-0.15-1.301-0.06c0.02-0.068,0.035-0.135,0.057-0.203
							c0.858-2.69,3.032-4.383,4.857-3.781c1.824,0.601,2.608,3.269,1.75,5.958c-0.66,2.068-2.098,3.542-3.556,3.842
							C637.817,148.239,637.032,145.689,635.253,145.103z"/>
					</g>
				</g>
				<path style="fill:#FFB692;" d="M643.264,267.199l-7.847,11.636l-1.393,9.054l3.551,4.853c0,0,8.123-0.569,9.495-2.753
					l-1.03-3.118l0.043-2.078c0,0,6.466-3.676,7.405-9.561C654.427,269.347,643.264,267.199,643.264,267.199z"/>
				
					<rect x="644.812" y="251.683" transform="matrix(0.8817 0.4717 -0.4717 0.8817 201.0804 -276.9457)" style="fill:#FFFFFF;" width="16.15" height="21.767"/>
				<path style="fill:#3E3D5E;" d="M658.23,272.84l19.764-35.194c2.471-4.563,0.776-10.266-3.787-12.737l0,0
					c-4.563-2.471-10.266-0.776-12.737,3.787l-19.764,35.194L658.23,272.84z"/>
			</g>
			<line style="fill:none;stroke:#262638;stroke-miterlimit:10;" x1="616.024" y1="232.808" x2="615.464" y2="280.077"/>
		</g>
		<g>
			<rect x="705.015" y="296.554" style="fill:#D0DFFF;" width="108.646" height="125.666"/>
			<g>
				<rect x="713.376" y="303.815" style="fill:none;stroke:#839ECC;stroke-miterlimit:10;" width="91.924" height="32.643"/>
				<rect x="747.541" y="328.08" style="fill:#839ECC;" width="23.593" height="2.998"/>
			</g>
			<g>
				<rect x="713.376" y="341.838" style="fill:none;stroke:#839ECC;stroke-miterlimit:10;" width="91.924" height="32.643"/>
				<rect x="747.541" y="366.102" style="fill:#839ECC;" width="23.593" height="2.998"/>
			</g>
			<g>
				<rect x="713.376" y="379.86" style="fill:none;stroke:#839ECC;stroke-miterlimit:10;" width="91.924" height="32.643"/>
				<rect x="747.541" y="404.125" style="fill:#839ECC;" width="23.593" height="2.998"/>
			</g>
			<rect x="713.376" y="422.22" style="fill:#839ECC;" width="14.512" height="3.759"/>
			<rect x="790.788" y="422.22" style="fill:#839ECC;" width="14.512" height="3.759"/>
		</g>
		<g>
			<g>
				<path style="fill:#4D8C5F;" d="M742.06,276.266c0-11.295-17.04-10.614-21.422,4.869L742.06,276.266z"/>
				<path style="fill:#4D8C5F;" d="M740.94,276.266c0-11.295,17.04-10.614,21.422,4.869L740.94,276.266z"/>
				<path style="fill:#55C670;" d="M742.06,276.266c0-15.92-11.149-20.886-22.396-18.257l16.359,18.695L742.06,276.266z"/>
				<path style="fill:#58A86E;" d="M739.333,276.266c0-15.92,11.149-20.886,22.396-18.257l-16.359,18.695L739.333,276.266z"/>
			</g>
			<g>
				<path style="fill:#FC7F6B;" d="M740.555,295.523L740.555,295.523c-5.671,0-10.267-4.597-10.267-10.267v-10.267h20.534v10.267
					C750.822,290.926,746.225,295.523,740.555,295.523z"/>
				<path style="fill:#D1625D;" d="M743.784,288.694c0,0,0.549,4.262-2.357,4.262c-1.361,0-1.995,1.192-2.29,2.458
					c0.465,0.064,0.935,0.109,1.418,0.109h0c5.67,0,10.267-4.597,10.267-10.267v-10.267h-7.039V288.694z"/>
				<path style="fill:#D1625D;" d="M748.24,296.943h-15.369c-1.427,0-2.583-1.157-2.583-2.583l0,0c0-1.427,1.156-2.583,2.583-2.583
					h15.369c1.427,0,2.583,1.156,2.583,2.583l0,0C750.822,295.787,749.666,296.943,748.24,296.943z"/>
				<path style="fill:#FC7F6B;" d="M740.684,296.943h-7.814c-1.427,0-2.583-1.157-2.583-2.583l0,0c0-1.427,1.156-2.583,2.583-2.583
					h7.814c1.427,0,2.583,1.156,2.583,2.583l0,0C743.267,295.787,742.111,296.943,740.684,296.943z"/>
			</g>
		</g>
		<g>
			<g>
				<rect x="265.801" y="358.283" style="fill:#C6D7F4;" width="23.18" height="72.324"/>
				<path style="fill:#A0B8E8;" d="M265.801,375.983c10.933-1.455,18.557,3.59,23.18,11.081v-28.782h-23.18V375.983z"/>
				<g>
					<path style="fill:#A0B3D8;" d="M285.611,322.433h-41.666c-12.027,0-21.778-9.75-21.778-21.778V277.94
						c0-15.873,12.868-28.741,28.741-28.741h27.74c15.873,0,28.741,12.868,28.741,28.741v22.715
						C307.389,312.683,297.639,322.433,285.611,322.433z"/>
					<path style="fill:#B2C7EA;" d="M293.565,322.433h-41.666c-12.028,0-21.778-9.75-21.778-21.778V277.94
						c0-15.873,12.868-28.741,28.741-28.741h27.74c15.873,0,28.741,12.868,28.741,28.741v22.715
						C315.343,312.683,305.592,322.433,293.565,322.433z"/>
				</g>
				<g>
					<path style="fill:#A0B3D8;" d="M302.954,368.964h-72.379c-7.029,0-12.726-5.698-12.726-12.726l0,0
						c0-7.029,5.698-12.726,12.726-12.726h72.379c7.029,0,12.727,5.698,12.727,12.726l0,0
						C315.681,363.266,309.983,368.964,302.954,368.964z"/>
					<path style="fill:#B2C7EA;" d="M314.317,368.964h-58.139c-7.029,0-12.726-5.698-12.726-12.726l0,0
						c0-7.029,5.698-12.726,12.726-12.726h58.139c7.029,0,12.727,5.698,12.727,12.726l0,0
						C327.044,363.266,321.346,368.964,314.317,368.964z"/>
				</g>
				<path style="fill:#C6D7F4;" d="M307.936,431.204h-61.224c-3.109,0-5.63-2.52-5.63-5.63v-0.084c0-3.109,2.52-5.63,5.63-5.63
					h61.224c3.109,0,5.63,2.521,5.63,5.63v0.083C313.566,428.683,311.045,431.204,307.936,431.204z"/>
				<g>
					<path style="fill:#A0B8E8;" d="M268.612,437.23c0,3.328-2.698,6.026-6.026,6.026c-3.328,0-6.026-2.698-6.026-6.026
						c0-3.328,2.698-6.026,6.026-6.026C265.914,431.204,268.612,433.902,268.612,437.23z"/>
					<path style="fill:#8397B7;" d="M264.582,437.23c0,3.328-2.698,6.026-6.026,6.026c-3.328,0-6.026-2.698-6.026-6.026
						c0-3.328,2.698-6.026,6.026-6.026C261.884,431.204,264.582,433.902,264.582,437.23z"/>
				</g>
				<g>
					<path style="fill:#A0B8E8;" d="M287.268,437.23c0,3.328-2.698,6.026-6.026,6.026c-3.328,0-6.026-2.698-6.026-6.026
						c0-3.328,2.698-6.026,6.026-6.026C284.57,431.204,287.268,433.902,287.268,437.23z"/>
					<path style="fill:#8397B7;" d="M283.238,437.23c0,3.328-2.698,6.026-6.026,6.026c-3.328,0-6.026-2.698-6.026-6.026
						c0-3.328,2.698-6.026,6.026-6.026C280.54,431.204,283.238,433.902,283.238,437.23z"/>
				</g>
				<g>
					<path style="fill:#A0B8E8;" d="M305.924,437.23c0,3.328-2.698,6.026-6.026,6.026s-6.026-2.698-6.026-6.026
						c0-3.328,2.698-6.026,6.026-6.026S305.924,433.902,305.924,437.23z"/>
					<path style="fill:#8397B7;" d="M301.894,437.23c0,3.328-2.698,6.026-6.026,6.026c-3.328,0-6.026-2.698-6.026-6.026
						c0-3.328,2.698-6.026,6.026-6.026C299.196,431.204,301.894,433.902,301.894,437.23z"/>
				</g>
			</g>
			<g>
				<path style="fill:#EBEBF7;" d="M302.774,251.852c-5.371-0.963-10.526,2.548-11.595,7.899l-10.901,45.187
					c-0.977,5.449,2.648,10.658,8.096,11.635l0,0c5.448,0.977,10.658-2.648,11.635-8.096l10.823-44.797
					C311.931,258.177,308.298,252.843,302.774,251.852L302.774,251.852z"/>
				<g>
					<path style="fill:#D88D87;" d="M326.266,314.017c-3.115-4.011-0.684-6.906,2.258-6.974c2.941-0.068,13.009,2.712,13.009,2.712
						s0.011,3.208-3.573,3.348c-3.584,0.14-5.583-0.288-5.583-0.288S330.784,316.029,326.266,314.017z"/>
					<path style="fill:#EBEBF7;" d="M322.639,323.518l-34.437-6.846c-4.103-0.922-6.681-4.995-5.76-9.097l0,0
						c0.922-4.102,4.995-6.681,9.097-5.76l34.437,6.846L322.639,323.518z"/>
					<g>
						<path style="fill:#FFB692;" d="M327.542,325.856l-1.72-0.347c-4.818-0.973-7.935-5.667-6.963-10.484l0,0
							c0.972-4.818,5.667-7.935,10.484-6.963l1.72,0.347c4.818,0.973,7.935,5.667,6.963,10.484l0,0
							C337.054,323.711,332.36,326.829,327.542,325.856z"/>
					</g>
					<path style="fill:#FFB692;" d="M345.787,318.329l-9.225-2.099c-1.255-0.228-2.095-1.442-1.867-2.696
						c0.228-1.255,1.441-2.095,2.696-1.867l9.225,2.1c1.255,0.228,2.095,1.441,1.867,2.696
						C348.255,317.717,347.042,318.557,345.787,318.329z"/>
					<path style="fill:#FFB692;" d="M342.84,321.845l-9.225-2.099c-1.255-0.228-2.095-1.441-1.867-2.696
						c0.228-1.255,1.441-2.095,2.696-1.867l9.225,2.099c1.255,0.228,2.095,1.441,1.867,2.696
						C345.308,321.234,344.095,322.074,342.84,321.845z"/>
					<path style="fill:#FFB692;" d="M340.6,325.478l-9.225-2.099c-1.255-0.228-2.095-1.441-1.867-2.696s1.441-2.095,2.696-1.867
						l9.225,2.099c1.255,0.228,2.095,1.441,1.867,2.696C343.068,324.866,341.854,325.706,340.6,325.478z"/>
					<path style="fill:#FFB692;" d="M337.448,327.836l-9.225-2.099c-1.255-0.228-2.095-1.441-1.867-2.696
						c0.228-1.255,1.441-2.095,2.696-1.867l9.225,2.099c1.255,0.228,2.095,1.441,1.867,2.696
						C339.916,327.224,338.702,328.064,337.448,327.836z"/>
				</g>
			</g>
			<g>
				<g>
					<g>
						<g>
							<path style="fill:#56567C;" d="M340.462,441.977h-5.021c-2.791,0-5.074-2.283-5.074-5.074v-12.328
								c0-2.791,2.283-5.074,5.074-5.074h5.021c2.791,0,5.074,2.283,5.074,5.074v12.328
								C345.536,439.693,343.253,441.977,340.462,441.977z"/>
							<g>
								<g>
									<path style="fill:#3E3D5E;" d="M330.095,429.937h0.517c0.388,0,0.745,0.24,0.866,0.609c0.873,2.67,3.381,4.6,6.342,4.6
										c2.962,0,5.469-1.93,6.342-4.6c0.121-0.369,0.478-0.609,0.866-0.609h4.906c0.155,0,0.307,0.039,0.442,0.113l12.721,6.939
										c1.854,1.011,3.362,2.555,4.329,4.433l1.793,3.48c1.286,2.497-0.526,5.469-3.335,5.469h-33.181
										c-2.365,0-4.222-2.027-4.016-4.383L330.095,429.937z"/>
								</g>
								<path style="fill:#56567C;" d="M330.307,451.572h38.194c1.01,0,1.836-0.826,1.836-1.836l0,0c0-1.01-0.826-1.836-1.836-1.836
									h-38.194c-1.01,0-1.836,0.826-1.836,1.836l0,0C328.471,450.745,329.297,451.572,330.307,451.572z"/>
							</g>
						</g>
						<polygon style="fill:#3E3D5E;" points="293.186,346.039 344.651,366.151 351.277,345.711 299.732,325.463 						"/>
						<path style="fill:#3E3D5E;" d="M352.307,424.477l-1.029-78.766l0,0c-11.924-0.144-21.704-2.852-21.866,10.585l-0.578,68.653
							L352.307,424.477z"/>
					</g>
				</g>
				<g>
					<g>
						<g>
							<path style="fill:#56567C;" d="M307.905,441.977h-5.021c-2.791,0-5.074-2.283-5.074-5.074v-12.328
								c0-2.791,2.283-5.074,5.074-5.074h5.021c2.791,0,5.074,2.283,5.074,5.074v12.328
								C312.979,439.693,310.696,441.977,307.905,441.977z"/>
							<g>
								<g>
									<path style="fill:#3E3D5E;" d="M297.538,429.937h0.517c0.388,0,0.745,0.24,0.866,0.609c0.873,2.67,3.381,4.6,6.342,4.6
										c2.962,0,5.469-1.93,6.342-4.6c0.121-0.369,0.477-0.609,0.866-0.609h4.906c0.155,0,0.307,0.039,0.442,0.113l12.721,6.939
										c1.854,1.011,3.362,2.555,4.329,4.433l1.793,3.48c1.286,2.497-0.526,5.469-3.334,5.469h-33.181
										c-2.365,0-4.222-2.027-4.016-4.383L297.538,429.937z"/>
								</g>
								<path style="fill:#56567C;" d="M297.75,451.572h38.194c1.01,0,1.836-0.826,1.836-1.836l0,0c0-1.01-0.826-1.836-1.836-1.836
									H297.75c-1.01,0-1.836,0.826-1.836,1.836l0,0C295.914,450.745,296.74,451.572,297.75,451.572z"/>
							</g>
						</g>
						<polygon style="fill:#3E3D5E;" points="262.186,342.892 312.094,366.151 318.72,345.711 267.175,325.463 						"/>
						<path style="fill:#3E3D5E;" d="M318.72,424.477v-78.766l0,0c-11.924-0.144-21.704-2.852-21.866,10.585l-0.578,68.653
							L318.72,424.477z"/>
					</g>
				</g>
			</g>
			<g>
				<g>
					<path style="fill:#FFFFFF;" d="M278.444,244.744c-13.919,0-23.92,3.601-30.69,8.248l3.087,37.644l2.26,31.442
						c0,0,28.982,4.973,48.303,0l0.268-29.735l1.058-36.535c0.275-2.059-0.776-4.055-2.617-5.016
						C296.496,248.906,289.515,246.075,278.444,244.744z"/>
				</g>
				<g>
					<path style="fill:#323244;" d="M252.779,321.961c0,0-1.107,25.144,24.356,25.144c25.463,0,23.802-25.729,23.802-25.729
						S252.572,321.668,252.779,321.961z"/>
				</g>
				<g>
					<g>
						<path style="fill:#323244;" d="M295.002,194.871c10.795,9.263-1.996,21.256-1.996,21.256l-0.711-21.382L295.002,194.871z"/>
						<path style="fill:#FFB692;" d="M264.799,245.391c-0.211-24.909,4.762-12.005,10.762-12.056
							c6-0.051,10.767-11.431,10.965,11.872c0.074,8.729-4.796,8.017-10.796,8.068C269.731,253.326,264.874,254.121,264.799,245.391
							z"/>
						<path style="fill:#D88D87;" d="M286.238,237.932c-1.137-13.326-5.436-4.641-10.676-4.597
							c-5.809,0.049-10.656-12.046-10.766,9.798C274.103,246.089,281.275,242.506,286.238,237.932z"/>
						<path style="fill:#FFB692;" d="M270.941,187.412l9.667-0.082c7.543-0.064,13.767,6.055,13.831,13.598l0.169,19.965
							c0.089,10.533-8.456,19.225-18.989,19.314l0,0c-10.533,0.09-19.224-8.456-19.314-18.989l-0.159-18.759
							C256.077,194.253,262.734,187.481,270.941,187.412z"/>
						<path style="fill:#D88D87;" d="M256.163,201.637c0.364-7.832,6.847-14.158,14.778-14.226l9.667-0.082
							c3.233-0.027,6.221,1.083,8.588,2.952C279.774,203.952,265.326,203.632,256.163,201.637z"/>
						<path style="fill:#323244;" d="M267.972,207.691l3.158-1.242c0.977-0.384,1.462-1.498,1.078-2.475l0,0
							c-0.384-0.977-1.498-1.462-2.475-1.078l-3.158,1.242c-0.977,0.384-1.462,1.498-1.078,2.475l0,0
							C265.881,207.59,266.995,208.075,267.972,207.691z"/>
						<path style="fill:#323244;" d="M283.12,206.576l3.068,1.452c0.949,0.449,2.093,0.04,2.542-0.909l0,0
							c0.449-0.949,0.04-2.093-0.909-2.542l-3.067-1.452c-0.949-0.449-2.093-0.04-2.542,0.909l0,0
							C281.762,204.983,282.171,206.127,283.12,206.576z"/>
						<path style="fill:#D88D87;" d="M281.346,220.541c0,0-4.99,0.957-5.004,1.894c-0.014,0.937,2.421,1.363,3.087,0.956
							C280.095,222.984,281.346,220.541,281.346,220.541z"/>
						<g>
							<path style="fill:#34344F;" d="M282.853,211.481c0.01,1.163,0.961,2.098,2.124,2.088s2.098-0.961,2.088-2.124
								c-0.01-1.163-0.961-2.098-2.124-2.088C283.778,209.367,282.843,210.318,282.853,211.481z"/>
							<path style="fill:#34344F;" d="M267.709,211.61c0.01,1.163,0.961,2.098,2.124,2.088c1.163-0.01,2.098-0.961,2.088-2.124
								c-0.01-1.163-0.961-2.098-2.124-2.088C268.634,209.496,267.699,210.447,267.709,211.61z"/>
							<path style="fill:#D88D87;" d="M277.221,209.724c0.312,1.199,0.64,2.387,1.021,3.555c0.369,1.172,0.735,2.342,1.144,3.497
								c0.405,1.157,0.811,2.313,1.26,3.457l0.085,0.215c0.034,0.088-0.031-0.051,0.01-0.121c0.025-0.052-0.002-0.005,0.004-0.009
								c-0.028,0.061-0.128,0.179-0.22,0.277c-0.199,0.202-0.412,0.421-0.633,0.627c-0.436,0.426-0.887,0.851-1.308,1.329
								c0.604-0.207,1.162-0.49,1.704-0.812c0.266-0.17,0.537-0.334,0.79-0.551c0.13-0.114,0.254-0.212,0.398-0.406
								c0.04-0.072,0.069-0.086,0.11-0.212c0.047-0.146,0.011-0.363,0.002-0.346l-0.076-0.219c-0.408-1.166-0.86-2.32-1.311-3.473
								c-0.448-1.154-0.94-2.294-1.428-3.433C278.296,211.957,277.767,210.835,277.221,209.724z"/>
						</g>
						<g>
							<path style="fill:#34344F;" d="M281.027,226.287c-2.564-0.628-6.131-1.682-9.443-3.288c-2.179-1.056-4.382,1.64-3.4,4.2
								c1.046,2.725,3.068,5.366,6.962,6.043c3.191,0.555,5.315-0.119,6.726-1.199C283.868,230.514,283.312,226.847,281.027,226.287
								z"/>
							<path style="fill:#FF9292;" d="M275.146,233.242c-3.894-0.677-5.916-3.318-6.962-6.043c-0.147-0.384-0.215-0.77-0.23-1.147
								c1.446-0.51,3.325-0.607,5.769,0.147c3.774,1.164,5.426,4.036,6.096,6.866c0.001,0.006,0.001,0.011,0.003,0.017
								C278.597,233.46,277.068,233.577,275.146,233.242z"/>
							<path style="fill:#FFABAB;" d="M277.292,230.198c-0.442,0.629-1.916,0.396-3.293-0.52c-1.377-0.917-2.134-2.17-1.692-2.8
								c0.442-0.629,1.916-0.397,3.293,0.521C276.976,228.315,277.734,229.568,277.292,230.198z"/>
							<path style="fill:#FFFFFF;" d="M281.027,226.287c-2.564-0.628-6.131-1.682-9.443-3.288c-1.338-0.649-2.682,0.12-3.295,1.401
								c1.859,1.964,4.805,3.675,8.334,4.627c2.263,0.611,4.476,0.83,6.457,0.709C283.219,228.228,282.468,226.64,281.027,226.287z"
								/>
						</g>
						<path style="fill:#323244;" d="M262.41,199.847c48.618,8.761,42.312-15.03,42.312-15.03l-2.358,3.862
							c0,0,1.351-11.397-9.466-14.821l-0.951,7.167c0,0-17.113-7.431-32.743,3.684c-15.631,11.115-5.765,34.679-5.765,34.679
							S260.461,219.264,262.41,199.847z"/>
						<path style="fill:#49496B;" d="M254.793,188.957c1.162-1.527,2.597-2.949,4.361-4.21c11.933,7.447,29.72,14.43,43.248,2.015
							c0.05,1.168-0.038,1.918-0.038,1.918l2.358-3.862c0,0,0.344,1.3,0.251,3.18C289.964,203.258,268.145,198.214,254.793,188.957z
							"/>
						<g>
							<path style="fill:#FFB692;" d="M259.284,212.875c0.613,3.588-0.833,6.883-3.231,7.359c-2.397,0.476-4.838-2.047-5.451-5.635
								c-0.613-3.588,0.833-6.883,3.231-7.359C256.231,206.764,258.671,209.287,259.284,212.875z"/>
							<path style="fill:#D88D87;" d="M256.749,213.258c0.366-0.073,0.733-0.035,1.087,0.088c-0.009-0.06-0.014-0.118-0.024-0.178
								c-0.405-2.37-2.017-4.037-3.601-3.723c-1.584,0.314-2.539,2.491-2.134,4.861c0.311,1.823,1.337,3.225,2.514,3.635
								C254.262,215.641,255.205,213.564,256.749,213.258z"/>
						</g>
					</g>
				</g>
			</g>
			<g>
				<path style="fill:#EBEBF7;" d="M253.654,251.852c-5.371-0.963-10.526,2.548-11.596,7.899l-10.901,45.187
					c-0.977,5.449,2.648,10.658,8.096,11.635l0,0c5.448,0.977,10.658-2.648,11.635-8.096l10.823-44.797
					C262.812,258.177,259.178,252.843,253.654,251.852L253.654,251.852z"/>
				<g>
					<path style="fill:#D88D87;" d="M277.146,314.017c-3.115-4.011-0.684-6.906,2.258-6.974c2.941-0.068,13.009,2.712,13.009,2.712
						s0.011,3.208-3.573,3.348c-3.584,0.14-5.583-0.288-5.583-0.288S281.664,316.029,277.146,314.017z"/>
					<path style="fill:#EBEBF7;" d="M273.52,323.518l-34.437-6.846c-4.103-0.922-6.681-4.995-5.76-9.097l0,0
						c0.922-4.102,4.995-6.681,9.097-5.76l34.437,6.846L273.52,323.518z"/>
					<g>
						<path style="fill:#FFB692;" d="M278.422,325.856l-1.72-0.347c-4.818-0.973-7.935-5.667-6.963-10.484l0,0
							c0.972-4.818,5.667-7.935,10.484-6.963l1.72,0.347c4.818,0.973,7.935,5.667,6.963,10.484l0,0
							C287.935,323.711,283.241,326.829,278.422,325.856z"/>
					</g>
					<path style="fill:#FFB692;" d="M296.667,318.329l-9.225-2.099c-1.255-0.228-2.095-1.442-1.867-2.696
						c0.228-1.255,1.441-2.095,2.696-1.867l9.225,2.1c1.255,0.228,2.095,1.441,1.867,2.696
						C299.135,317.717,297.922,318.557,296.667,318.329z"/>
					<path style="fill:#FFB692;" d="M293.72,321.845l-9.225-2.099c-1.255-0.228-2.095-1.441-1.867-2.696
						c0.228-1.255,1.441-2.095,2.696-1.867l9.225,2.099c1.255,0.228,2.095,1.441,1.867,2.696
						C296.188,321.234,294.975,322.074,293.72,321.845z"/>
					<path style="fill:#FFB692;" d="M291.48,325.478l-9.225-2.099c-1.255-0.228-2.095-1.441-1.867-2.696
						c0.228-1.255,1.441-2.095,2.696-1.867l9.225,2.099c1.255,0.228,2.095,1.441,1.867,2.696
						C293.948,324.866,292.735,325.706,291.48,325.478z"/>
					<path style="fill:#FFB692;" d="M288.328,327.836l-9.225-2.099c-1.255-0.228-2.095-1.441-1.867-2.696
						c0.228-1.255,1.441-2.095,2.696-1.867l9.225,2.099c1.255,0.228,2.095,1.441,1.867,2.696
						C290.796,327.224,289.583,328.064,288.328,327.836z"/>
				</g>
			</g>
			<g>
				<path style="fill:#5A5A66;" d="M358.898,320.477H296.14l13.054-44.182h59.278c1.737,0,2.986,1.671,2.494,3.337L358.898,320.477z
					"/>
				<rect x="267.02" y="320.461" style="fill:#4A4A56;" width="91.872" height="3.138"/>
				<rect x="296.077" y="320.461" style="fill:#4A4A56;" width="62.815" height="3.138"/>
				<polygon style="fill:#4A4A56;" points="309.193,276.295 306.809,276.295 293.504,320.602 296.077,320.461 				"/>
				<path style="fill:#727287;" d="M341.825,302.453c-0.882,2.71-3.479,4.295-5.8,3.539c-2.321-0.756-3.487-3.565-2.604-6.276
					c0.883-2.711,3.479-4.295,5.8-3.54C341.541,296.933,342.707,299.742,341.825,302.453z"/>
			</g>
			<polygon style="fill:#EBEBF7;" points="261.302,244.744 261.302,250.876 273.888,263.06 280.757,255.458 280.757,250.876 
				264.795,244.646 264.8,242.54 			"/>
			<polygon style="fill:#EBEBF7;" points="290.025,244.744 290.432,251.693 285.967,261.2 280.484,255.458 280.484,250.876 
				286.532,244.646 286.527,242.54 			"/>
			<path style="fill:#EBEBF7;" d="M295.337,288.437L295.337,288.437c-2.709,0-4.905-2.196-4.905-4.905v-8.828h9.81v8.828
				C300.242,286.241,298.046,288.437,295.337,288.437z"/>
		</g>
		<g>
			<g>
				<rect x="125.494" y="358.283" style="fill:#C6D7F4;" width="23.18" height="72.324"/>
				<path style="fill:#A0B8E8;" d="M125.494,375.983c10.933-1.455,18.557,3.59,23.18,11.081v-28.782h-23.18V375.983z"/>
				<g>
					<path style="fill:#A0B3D8;" d="M145.305,322.433h-41.666c-12.028,0-21.778-9.75-21.778-21.778V277.94
						c0-15.873,12.868-28.741,28.741-28.741h27.74c15.873,0,28.741,12.868,28.741,28.741v22.715
						C167.083,312.683,157.332,322.433,145.305,322.433z"/>
					<path style="fill:#B2C7EA;" d="M153.259,322.433h-41.666c-12.028,0-21.778-9.75-21.778-21.778V277.94
						c0-15.873,12.868-28.741,28.741-28.741h27.74c15.873,0,28.741,12.868,28.741,28.741v22.715
						C175.036,312.683,165.286,322.433,153.259,322.433z"/>
				</g>
				<g>
					<path style="fill:#A0B3D8;" d="M162.648,368.964H90.27c-7.029,0-12.726-5.698-12.726-12.726l0,0
						c0-7.029,5.698-12.726,12.726-12.726h72.379c7.029,0,12.727,5.698,12.727,12.726l0,0
						C175.375,363.266,169.677,368.964,162.648,368.964z"/>
					<path style="fill:#B2C7EA;" d="M174.011,368.964h-58.139c-7.028,0-12.726-5.698-12.726-12.726l0,0
						c0-7.029,5.698-12.726,12.726-12.726h58.139c7.029,0,12.727,5.698,12.727,12.726l0,0
						C186.738,363.266,181.04,368.964,174.011,368.964z"/>
				</g>
				<path style="fill:#C6D7F4;" d="M167.63,431.204h-61.224c-3.109,0-5.63-2.52-5.63-5.63v-0.084c0-3.109,2.52-5.63,5.63-5.63
					h61.224c3.109,0,5.63,2.521,5.63,5.63v0.083C173.26,428.683,170.739,431.204,167.63,431.204z"/>
				<g>
					<path style="fill:#A0B8E8;" d="M128.305,437.23c0,3.328-2.698,6.026-6.026,6.026c-3.328,0-6.026-2.698-6.026-6.026
						c0-3.328,2.698-6.026,6.026-6.026C125.607,431.204,128.305,433.902,128.305,437.23z"/>
					<path style="fill:#8397B7;" d="M124.276,437.23c0,3.328-2.698,6.026-6.026,6.026c-3.328,0-6.026-2.698-6.026-6.026
						c0-3.328,2.698-6.026,6.026-6.026C121.578,431.204,124.276,433.902,124.276,437.23z"/>
				</g>
				<g>
					<path style="fill:#A0B8E8;" d="M146.961,437.23c0,3.328-2.698,6.026-6.026,6.026c-3.328,0-6.026-2.698-6.026-6.026
						c0-3.328,2.698-6.026,6.026-6.026C144.264,431.204,146.961,433.902,146.961,437.23z"/>
					<path style="fill:#8397B7;" d="M142.932,437.23c0,3.328-2.698,6.026-6.026,6.026c-3.328,0-6.026-2.698-6.026-6.026
						c0-3.328,2.698-6.026,6.026-6.026C140.234,431.204,142.932,433.902,142.932,437.23z"/>
				</g>
				<g>
					<path style="fill:#A0B8E8;" d="M165.617,437.23c0,3.328-2.698,6.026-6.026,6.026s-6.026-2.698-6.026-6.026
						c0-3.328,2.698-6.026,6.026-6.026S165.617,433.902,165.617,437.23z"/>
					<path style="fill:#8397B7;" d="M161.588,437.23c0,3.328-2.698,6.026-6.026,6.026c-3.328,0-6.026-2.698-6.026-6.026
						c0-3.328,2.698-6.026,6.026-6.026C158.89,431.204,161.588,433.902,161.588,437.23z"/>
				</g>
			</g>
			<g>
				<g>
					<g>
						<g>
							<path style="fill:#A56F62;" d="M200.636,441.977h-5.021c-2.791,0-5.074-2.283-5.074-5.074v-12.328
								c0-2.791,2.283-5.074,5.074-5.074h5.021c2.791,0,5.074,2.283,5.074,5.074v12.328
								C205.71,439.693,203.427,441.977,200.636,441.977z"/>
							<g>
								<g>
									<path style="fill:#4E4E7F;" d="M190.269,429.937h0.517c0.388,0,0.745,0.24,0.866,0.609c0.873,2.67,3.381,4.6,6.342,4.6
										c2.962,0,5.469-1.93,6.342-4.6c0.121-0.369,0.477-0.609,0.866-0.609h4.906c0.154,0,0.307,0.039,0.442,0.113l12.721,6.939
										c1.854,1.011,3.362,2.555,4.329,4.433l1.793,3.48c1.286,2.497-0.526,5.469-3.334,5.469h-33.181
										c-2.365,0-4.222-2.027-4.016-4.383L190.269,429.937z"/>
								</g>
								<path style="fill:#F4C85B;" d="M190.482,451.572h38.194c1.01,0,1.836-0.826,1.836-1.836l0,0c0-1.01-0.826-1.836-1.836-1.836
									h-38.194c-1.01,0-1.836,0.826-1.836,1.836l0,0C188.645,450.745,189.472,451.572,190.482,451.572z"/>
							</g>
						</g>
						<polygon style="fill:#575E44;" points="152.88,346.039 204.826,366.151 211.452,345.711 159.425,325.463 						"/>
						<path style="fill:#575E44;" d="M208.444,424.477l3.008-78.766l0,0c-11.924-0.144-21.704-2.852-21.866,10.585l-0.578,68.653
							L208.444,424.477z"/>
					</g>
				</g>
				<g>
					<g>
						<g>
							<path style="fill:#A56F62;" d="M168.079,441.977h-5.021c-2.791,0-5.074-2.283-5.074-5.074v-12.328
								c0-2.791,2.283-5.074,5.074-5.074h5.021c2.791,0,5.074,2.283,5.074,5.074v12.328
								C173.153,439.693,170.87,441.977,168.079,441.977z"/>
							<g>
								<g>
									<path style="fill:#4E4E7F;" d="M157.712,429.937h0.517c0.388,0,0.745,0.24,0.866,0.609c0.874,2.67,3.381,4.6,6.342,4.6
										c2.962,0,5.469-1.93,6.342-4.6c0.121-0.369,0.477-0.609,0.866-0.609h4.906c0.154,0,0.307,0.039,0.442,0.113l12.721,6.939
										c1.854,1.011,3.362,2.555,4.329,4.433l1.793,3.48c1.286,2.497-0.526,5.469-3.334,5.469H160.32
										c-2.365,0-4.222-2.027-4.016-4.383L157.712,429.937z"/>
								</g>
								<path style="fill:#F4C85B;" d="M157.925,451.572h38.194c1.01,0,1.836-0.826,1.836-1.836l0,0c0-1.01-0.826-1.836-1.836-1.836
									h-38.194c-1.01,0-1.836,0.826-1.836,1.836l0,0C156.088,450.745,156.915,451.572,157.925,451.572z"/>
							</g>
						</g>
						<polygon style="fill:#575E44;" points="121.879,342.892 172.269,366.151 178.895,345.711 126.868,325.463 						"/>
						<path style="fill:#575E44;" d="M175.887,424.477l3.008-78.766l0,0c-11.924-0.144-21.704-2.852-21.866,10.585l-0.578,68.653
							L175.887,424.477z"/>
					</g>
				</g>
			</g>
			<path style="fill:#323244;" d="M128.038,188.549c14.948-11.63,35.045,1.09,33.882,15.992c-1.163,14.902,14.45,34.71,7.142,44.523
				c-7.308,9.813-20.429,6.542-22.92,1.999c-2.491-4.543-18.104,10.904-28.734,0.363c0,0-20.595,1.09-15.114-23.079
				C107.775,204.178,107.277,184.369,128.038,188.549z"/>
			<g>
				<path style="fill:#A56F62;" d="M152.688,262.688l8.844,47.915c0.854,4.117,4.884,6.763,9.001,5.909h0
					c4.117-0.854,6.763-4.884,5.909-9.001l-8.843-47.915L152.688,262.688z"/>
				<polygon style="fill:#8C5C53;" points="153.916,269.25 158.624,294.883 172.097,283.641 170.123,273.089 				"/>
				<path style="fill:#EFB348;" d="M175.569,279.413l-3.505-20.327c-1.262-5.656-6.87-9.217-12.525-7.955l0,0
					c-5.656,1.262-9.217,6.87-7.955,12.525l3.504,20.328L175.569,279.413z"/>
				<g>
					<path style="fill:#8C5C53;" d="M196.536,324.724c-4.857,1.483-4.539,5.25-2.174,7.001c2.365,1.751,12.195,5.281,12.195,5.281
						s1.858-2.615-0.991-4.795c-2.849-2.179-4.729-2.982-4.729-2.982S201.388,325.684,196.536,324.724z"/>
					<path style="fill:#A56F62;" d="M193.106,329.736l-26.751-12.516c-3.767-1.868-5.307-6.436-3.439-10.203l0,0
						c1.868-3.767,6.436-5.307,10.203-3.439l26.751,12.516L193.106,329.736z"/>
					<g>
						<path style="fill:#A56F62;" d="M204.402,315.784l-1.606-0.707c-4.498-1.982-9.751,0.058-11.732,4.556h0
							c-1.982,4.498,0.058,9.751,4.556,11.732l1.606,0.708c4.498,1.982,9.75-0.059,11.732-4.556l0,0
							C210.94,323.019,208.9,317.766,204.402,315.784z"/>
					</g>
					<path style="fill:#A56F62;" d="M214.975,332.45l-8.749-3.6c-1.157-0.537-2.543-0.029-3.079,1.128
						c-0.536,1.157-0.029,2.543,1.128,3.079l8.749,3.6c1.157,0.536,2.543,0.029,3.079-1.128
						C216.639,334.372,216.132,332.986,214.975,332.45z"/>
					<path style="fill:#A56F62;" d="M214.593,327.878l-8.749-3.6c-1.157-0.537-2.543-0.029-3.079,1.128
						c-0.536,1.157-0.029,2.543,1.128,3.08l8.749,3.6c1.157,0.537,2.543,0.029,3.079-1.128
						C216.257,329.8,215.75,328.414,214.593,327.878z"/>
					<path style="fill:#A56F62;" d="M214.855,323.618l-8.749-3.6c-1.157-0.537-2.543-0.029-3.079,1.128
						c-0.536,1.157-0.029,2.543,1.128,3.08l8.749,3.6c1.157,0.537,2.543,0.029,3.079-1.128
						C216.52,325.54,216.012,324.155,214.855,323.618z"/>
					<path style="fill:#A56F62;" d="M213.638,319.875l-8.749-3.6c-1.157-0.537-2.543-0.029-3.079,1.128
						c-0.536,1.157-0.029,2.543,1.128,3.08l8.749,3.6c1.157,0.536,2.543,0.029,3.079-1.128
						C215.302,321.797,214.795,320.411,213.638,319.875z"/>
				</g>
			</g>
			<g>
				<g>
					<path style="fill:#F4C85B;" d="M138.138,244.744c-13.919,0-23.92,3.601-30.69,8.248l6.914,37.644l-1.567,31.442
						c0,0,28.982,4.973,48.303,0l-3.559-29.735l4.886-36.535c0.275-2.059-0.776-4.055-2.617-5.016
						C156.189,248.906,149.208,246.075,138.138,244.744z"/>
					<path style="fill:#A56F62;" d="M150.839,252.639c0,4.645-5.708,12.078-13.898,12.078c-8.19,0-15.762-7.433-15.762-12.078
						c0-4.645,6.639-8.41,14.83-8.41C144.199,244.229,150.839,247.994,150.839,252.639z"/>
				</g>
				<g>
					<path style="fill:#323244;" d="M112.473,321.961c0,0-1.107,25.144,24.356,25.144c25.463,0,23.803-25.729,23.803-25.729
						S112.265,321.668,112.473,321.961z"/>
				</g>
				<g>
					<path style="fill:#323244;" d="M129.84,180.63c-10.163-0.277-18.598,6.718-18.84,15.624
						c-0.243,8.906,7.799,16.349,17.962,16.626c10.163,0.277,18.598-6.718,18.841-15.624
						C148.045,188.35,140.003,180.907,129.84,180.63z"/>
					<path style="fill:#A56F62;" d="M126.687,244.505c0.683-25.064,5.222-11.905,11.259-11.74
						c6.037,0.165,11.242-11.111,10.603,12.336c-0.239,8.784-5.113,7.892-11.149,7.727
						C131.362,252.663,126.447,253.288,126.687,244.505z"/>
					<path style="fill:#8C5C53;" d="M148.52,237.772c-0.664-13.446-5.302-4.864-10.574-5.008c-5.845-0.159-10.286-12.5-11.182,9.469
						C136.02,245.541,143.363,242.195,148.52,237.772z"/>
					<path style="fill:#A56F62;" d="M134.949,186.403l9.727,0.265c7.59,0.207,13.631,6.586,13.424,14.176l-0.547,20.09
						c-0.289,10.599-9.197,19.034-19.795,18.745l0,0c-10.599-0.289-19.034-9.197-18.745-19.795l0.514-18.875
						C119.751,192.75,126.691,186.178,134.949,186.403z"/>
					<path style="fill:#323244;" d="M133.105,195.273c7.293,14.532,24.435,15.948,29.267,5.828
						c4.832-10.12-8.213-29.555-28.045-15.857c0,0-15.16-4.495-18.36,8.423c-3.2,12.917,3.483,18.51,3.483,18.51
						s5.491,0.529,6.175-10.653C125.625,201.524,131.811,200.933,133.105,195.273z"/>
					<path style="fill:#323244;" d="M130.074,206.33l3.222-1.136c0.997-0.352,1.524-1.454,1.173-2.451l0,0
						c-0.351-0.997-1.454-1.524-2.451-1.173l-3.221,1.136c-0.997,0.351-1.525,1.454-1.173,2.451l0,0
						C127.974,206.154,129.077,206.681,130.074,206.33z"/>
					<path style="fill:#323244;" d="M145.352,205.753l3.033,1.571c0.939,0.486,2.104,0.116,2.59-0.823l0,0
						c0.486-0.939,0.116-2.104-0.823-2.59l-3.033-1.571c-0.938-0.486-2.104-0.116-2.59,0.823l0,0
						C144.043,204.102,144.413,205.267,145.352,205.753z"/>
					<path style="fill:#8C5C53;" d="M143.065,219.737c0,0-5.054,0.784-5.102,1.726c-0.048,0.942,2.387,1.458,3.071,1.072
						C141.719,222.149,143.065,219.737,143.065,219.737z"/>
					<g>
						<path style="fill:#8C5C53;" d="M139.305,208.707c0.569,1.117,1.078,2.261,1.556,3.417c0.48,1.155,0.93,2.322,1.356,3.497
							c0.424,1.175,0.839,2.355,1.209,3.544l0.064,0.224c0.005-0.038,0.049,0.251-0.022,0.438c-0.017,0.056-0.033,0.089-0.04,0.097
							l-0.032,0.053l-0.068,0.102c-0.174,0.217-0.304,0.311-0.449,0.42c-0.279,0.203-0.558,0.361-0.846,0.508
							c-0.579,0.28-1.169,0.519-1.818,0.651c0.406-0.52,0.857-0.957,1.289-1.394c0.215-0.215,0.438-0.424,0.628-0.626
							c0.086-0.096,0.189-0.211,0.197-0.245l-0.006,0.004l-0.001,0.003c0.005-0.007-0.004,0.008-0.02,0.044
							c-0.061,0.111,0.015,0.322-0.021,0.212l-0.082-0.217c-0.41-1.165-0.774-2.34-1.129-3.52c-0.353-1.18-0.682-2.367-0.982-3.566
							C139.786,211.155,139.515,209.945,139.305,208.707z"/>
						<g>
							<path style="fill:#34344F;" d="M129.668,210.263c-0.032,1.17,0.891,2.145,2.061,2.177c1.17,0.032,2.145-0.891,2.177-2.061
								c0.032-1.17-0.891-2.145-2.062-2.177C130.675,208.169,129.7,209.092,129.668,210.263z"/>
							<path style="fill:#34344F;" d="M130.376,210.908c-0.328,0.727-2.193,0.367-2.573-1.352l1.082,0.338l1.551-1.168
								L130.376,210.908z"/>
						</g>
						<g>
							<path style="fill:#34344F;" d="M144.907,210.678c-0.032,1.17,0.891,2.145,2.061,2.177c1.17,0.032,2.145-0.891,2.177-2.061
								c0.032-1.171-0.891-2.145-2.061-2.177C145.913,208.584,144.939,209.507,144.907,210.678z"/>
							<path style="fill:#34344F;" d="M148.363,211.398c0.288,0.744,2.17,0.486,2.643-1.209l-1.099,0.279l-1.485-1.251
								L148.363,211.398z"/>
						</g>
					</g>
					<g>
						<path style="fill:#34344F;" d="M142.538,225.506c-2.557-0.724-6.107-1.912-9.381-3.647c-2.154-1.141-4.467,1.492-3.571,4.103
							c0.954,2.778,2.893,5.508,6.786,6.329c3.19,0.673,5.351,0.072,6.809-0.965C145.244,229.86,144.816,226.15,142.538,225.506z"/>
						<path style="fill:#FF9292;" d="M136.372,232.29c-3.892-0.821-5.832-3.551-6.786-6.329c-0.134-0.392-0.189-0.782-0.19-1.161
							c1.473-0.461,3.367-0.491,5.798,0.355c3.754,1.306,5.313,4.255,5.886,7.126c0.001,0.006,0.001,0.011,0.002,0.017
							C139.835,232.633,138.293,232.696,136.372,232.29z"/>
						<path style="fill:#FFABAB;" d="M138.64,229.305c-0.467,0.617-1.942,0.33-3.294-0.642c-1.352-0.972-2.069-2.26-1.602-2.877
							c0.467-0.617,1.942-0.33,3.294,0.642C138.39,227.399,139.107,228.688,138.64,229.305z"/>
						<path style="fill:#FFFFFF;" d="M142.538,225.506c-2.557-0.724-6.107-1.912-9.381-3.647c-1.323-0.701-2.702,0.024-3.365,1.291
							c1.799,2.042,4.701,3.869,8.217,4.954c2.254,0.696,4.472,0.996,6.469,0.945C144.673,227.536,143.974,225.912,142.538,225.506z
							"/>
					</g>
					<g>
						<path style="fill:#A56F62;" d="M122.308,211.598c0.488,3.631-1.086,6.894-3.514,7.286c-2.429,0.393-4.793-2.233-5.28-5.865
							c-0.488-3.632,1.086-6.894,3.514-7.286C119.456,205.341,121.82,207.967,122.308,211.598z"/>
						<path style="fill:#8C5C53;" d="M119.743,211.892c0.371-0.06,0.739-0.009,1.09,0.128c-0.007-0.06-0.01-0.12-0.018-0.18
							c-0.322-2.399-1.884-4.134-3.488-3.875c-1.604,0.26-2.644,2.415-2.322,4.814c0.248,1.844,1.229,3.292,2.398,3.747
							C117.156,214.2,118.179,212.145,119.743,211.892z"/>
					</g>
				</g>
			</g>
			<g>
				<path style="fill:#A56F62;" d="M102.604,260.004l-9.654,47.758c-0.742,4.139,2.011,8.096,6.15,8.838l0,0
					c4.139,0.742,8.096-2.011,8.838-6.15l9.654-47.758L102.604,260.004z"/>
				<polygon style="fill:#8C5C53;" points="101.298,266.551 96.112,292.092 112.804,286.682 114.906,276.154 				"/>
				<path style="fill:#EFB348;" d="M117.602,284.052l4.325-20.169c0.937-5.719-2.939-11.114-8.657-12.051h0
					c-5.718-0.937-11.113,2.939-12.05,8.657l-4.325,20.169L117.602,284.052z"/>
				<g>
					<path style="fill:#8C5C53;" d="M136.84,314.017c-3.115-4.011-0.684-6.906,2.258-6.974c2.941-0.068,13.009,2.712,13.009,2.712
						s0.011,3.208-3.573,3.348c-3.584,0.14-5.583-0.288-5.583-0.288S141.357,316.029,136.84,314.017z"/>
					<path style="fill:#A56F62;" d="M133.213,323.518l-34.437-6.846c-4.103-0.922-6.681-4.995-5.76-9.097l0,0
						c0.922-4.102,4.995-6.681,9.097-5.76l34.437,6.846L133.213,323.518z"/>
					<g>
						<path style="fill:#A56F62;" d="M138.116,325.856l-1.72-0.347c-4.818-0.973-7.935-5.667-6.963-10.484l0,0
							c0.972-4.818,5.667-7.935,10.484-6.963l1.721,0.347c4.818,0.973,7.935,5.667,6.963,10.484l0,0
							C147.628,323.711,142.934,326.829,138.116,325.856z"/>
					</g>
					<path style="fill:#A56F62;" d="M156.361,318.329l-9.225-2.099c-1.255-0.228-2.095-1.442-1.867-2.696
						c0.228-1.255,1.441-2.095,2.696-1.867l9.225,2.1c1.255,0.228,2.095,1.441,1.867,2.696
						C158.829,317.717,157.616,318.557,156.361,318.329z"/>
					<path style="fill:#A56F62;" d="M153.414,321.845l-9.225-2.099c-1.255-0.228-2.095-1.441-1.867-2.696
						c0.228-1.255,1.442-2.095,2.696-1.867l9.225,2.099c1.255,0.228,2.095,1.441,1.867,2.696
						C155.882,321.234,154.669,322.074,153.414,321.845z"/>
					<path style="fill:#A56F62;" d="M151.174,325.478l-9.225-2.099c-1.255-0.228-2.095-1.441-1.867-2.696
						c0.228-1.255,1.441-2.095,2.696-1.867l9.225,2.099c1.255,0.228,2.095,1.441,1.867,2.696
						C153.642,324.866,152.428,325.706,151.174,325.478z"/>
					<path style="fill:#A56F62;" d="M148.021,327.836l-9.225-2.099c-1.255-0.228-2.095-1.441-1.867-2.696
						c0.228-1.255,1.441-2.095,2.696-1.867l9.225,2.099c1.255,0.228,2.095,1.441,1.867,2.696
						C150.49,327.224,149.276,328.064,148.021,327.836z"/>
				</g>
			</g>
			<path style="fill:#3C3C60;" d="M130.876,195.122c11.334,9.142,22.155,8.805,29.797,6.492c0.392-3.538-0.821-7.534-3.274-10.776
				c-9.514,10.063-27.859,1.372-27.859,1.372s-7.326,4.341-15.931,5.034c-0.125,0.405-0.24,0.825-0.337,1.269
				c-0.268,1.226-0.45,2.384-0.561,3.477C121.61,200.813,130.876,195.122,130.876,195.122z"/>
			<g>
				<path style="fill:#5A5A66;" d="M218.591,320.477h-62.758l13.054-44.182h59.278c1.737,0,2.986,1.671,2.494,3.337L218.591,320.477
					z"/>
				<rect x="126.714" y="320.461" style="fill:#4A4A56;" width="91.872" height="3.138"/>
				<rect x="155.771" y="320.461" style="fill:#4A4A56;" width="62.815" height="3.138"/>
				<polygon style="fill:#4A4A56;" points="168.887,276.295 166.502,276.295 153.197,320.602 155.771,320.461 				"/>
				<path style="fill:#727287;" d="M201.518,302.453c-0.882,2.71-3.479,4.295-5.8,3.539c-2.321-0.756-3.487-3.565-2.604-6.276
					c0.883-2.711,3.479-4.295,5.8-3.54C201.235,296.933,202.401,299.742,201.518,302.453z"/>
			</g>
		</g>
		<g>
			<g>
				<polygon style="fill:#8397B7;" points="364.673,340.445 348.497,338.237 374.21,449.07 381.507,449.07 				"/>
				<polygon style="fill:#8397B7;" points="113.014,340.445 129.189,338.237 103.476,449.07 96.179,449.07 				"/>
				<g>
					<rect x="94.472" y="338.237" style="fill:#A0B3D8;" width="289.429" height="14.054"/>
					<rect x="94.472" y="338.237" style="fill:#8397B7;" width="289.429" height="4.655"/>
					<path style="fill:#FFC154;" d="M398.877,338.833H79.497v-10.567c0-2.585,2.095-4.68,4.68-4.68h310.019
						c2.585,0,4.68,2.095,4.68,4.68V338.833z"/>
					<rect x="79.497" y="333.333" style="fill:#F29538;" width="319.38" height="5.5"/>
				</g>
				<g>
					<polygon style="fill:#A0B3D8;" points="77.637,460.916 84.934,460.916 110.647,350.083 94.472,352.291 					"/>
					<polygon style="fill:#A0B3D8;" points="383.953,352.291 367.778,350.083 393.491,460.916 400.788,460.916 					"/>
				</g>
			</g>
		</g>
	</g>
</g>
</svg>
